<svg width="50" height="51" viewBox="0 0 50 51" fill="none" xmlns="http://www.w3.org/2000/svg">
<g clip-path="url(#clip0_402_253)">
<path d="M25 50.705C38.8071 50.705 50 39.5121 50 25.705C50 11.8978 38.8071 0.704956 25 0.704956C11.1929 0.704956 0 11.8978 0 25.705C0 39.5121 11.1929 50.705 25 50.705Z" fill="#6DA544"/>
<path d="M25 10.4875L45.6521 25.7049L25 40.9223L4.34784 25.7049L25 10.4875Z" fill="#FFDA44"/>
<path d="M25 34.4006C29.8024 34.4006 33.6956 30.5074 33.6956 25.7049C33.6956 20.9025 29.8024 17.0093 25 17.0093C20.1975 17.0093 16.3044 20.9025 16.3044 25.7049C16.3044 30.5074 20.1975 34.4006 25 34.4006Z" fill="#F0F0F0"/>
<path d="M20.6521 25.1615C19.14 25.1615 17.6808 25.3915 16.3071 25.8182C16.368 30.5682 20.2355 34.4007 25 34.4007C27.9461 34.4007 30.548 32.9342 32.121 30.6928C29.4299 27.324 25.2892 25.1615 20.6521 25.1615Z" fill="#0052B4"/>
<path d="M33.5345 27.371C33.6392 26.8315 33.6957 26.275 33.6957 25.7049C33.6957 20.9024 29.8025 17.0093 25.0001 17.0093C21.4167 17.0093 18.3405 19.1774 17.0093 22.2729C18.186 22.0291 19.4044 21.9006 20.6523 21.9006C25.7028 21.9006 30.2718 24 33.5345 27.371Z" fill="#0052B4"/>
</g>
<defs>
<clipPath id="clip0_402_253">
<rect width="50" height="50" fill="white" transform="translate(0 0.704956)"/>
</clipPath>
</defs>
</svg>
